<?xml version="1.0" encoding="UTF-8" standalone="no"?>
<!DOCTYPE svg PUBLIC "-//W3C//DTD SVG 1.1//EN" "http://www.w3.org/Graphics/SVG/1.1/DTD/svg11.dtd">
<svg width="100%" height="100%" viewBox="0 0 3571 1011" version="1.1" xmlns="http://www.w3.org/2000/svg" xmlns:xlink="http://www.w3.org/1999/xlink" xml:space="preserve" xmlns:serif="http://www.serif.com/" style="fill-rule:evenodd;clip-rule:evenodd;stroke-linejoin:round;stroke-miterlimit:2;">
    <g transform="matrix(1,0,0,1,145.495,-1669.94)">
        <g transform="matrix(1.23377,0,0,1.23377,-482.636,1373.13)">
            <path d="M853.001,428.996C785.594,472.699 740.928,548.832 740.928,635.367C740.928,770.829 850.378,880.791 985.17,880.791C1119.96,880.791 1229.41,770.829 1229.41,635.367C1229.41,499.906 1119.96,389.944 985.17,389.944C973.11,389.944 961.253,390.825 949.659,392.525C946.246,393.026 943.881,396.203 944.382,399.616C944.882,403.029 948.06,405.393 951.473,404.893C962.475,403.279 973.726,402.444 985.17,402.444C1113.08,402.444 1216.91,506.822 1216.91,635.367C1216.91,763.913 1113.08,868.291 985.17,868.291C946.388,868.291 909.819,858.695 877.685,841.739C945.092,798.036 989.758,721.903 989.758,635.367C989.758,499.906 880.308,389.944 745.515,389.944C610.723,389.944 501.273,499.906 501.273,635.367C501.273,770.829 610.723,880.791 745.515,880.791C757.576,880.791 769.433,879.91 781.027,878.21C784.44,877.709 786.804,874.532 786.304,871.119C785.803,867.706 782.626,865.341 779.213,865.842C768.211,867.455 756.96,868.291 745.515,868.291C617.605,868.291 513.773,763.913 513.773,635.367C513.773,506.822 617.605,402.444 745.515,402.444C784.298,402.444 820.867,412.04 853.001,428.996ZM977.238,632.298L871.149,722.67L871.149,831.079C934.982,789.571 977.258,717.391 977.258,635.367C977.258,634.339 977.251,633.312 977.238,632.298ZM753.44,633.048C753.432,633.827 753.428,634.597 753.428,635.367C753.428,717.007 795.309,788.898 858.649,830.499L858.649,722.67L753.44,633.048ZM955.386,536.527C943.62,545.996 910.729,572.989 871.149,609.994L871.149,706.25L973.346,619.193C973.698,618.895 974.08,618.633 974.489,618.418C975.142,618.074 975.854,617.851 976.586,617.754L976.603,617.752C974.452,588.896 967.061,561.499 955.386,536.527ZM775.057,537.047C763.498,561.933 756.188,589.21 754.069,617.927C754.921,618.163 755.735,618.583 756.452,619.193L858.649,706.25L858.649,609.994C819.767,573.642 787.341,546.952 775.057,537.047ZM858.649,440.237C826.096,461.614 799.209,490.997 780.763,525.597C790.497,533.391 820.896,558.145 858.649,592.939L858.649,440.237ZM871.149,439.655L871.149,592.939C909.743,557.368 940.658,532.288 949.657,525.099L949.606,525.004C946.447,519.131 943.046,513.39 939.4,507.806C932.589,497.375 924.943,487.491 916.56,478.276C907.882,468.737 898.415,459.916 888.284,451.937C882.798,447.616 877.117,443.547 871.268,439.733L871.149,439.655Z" style="fill:white;"/>
        </g>
        <g transform="matrix(1.8433,0,0,1.8433,-378.308,1638.32)">
            <g transform="matrix(1,0,0,1,-9.01774,70.6299)">
                <path d="M952.601,156.121L884.975,156.121L884.975,191.918L962.046,191.918L962.046,216.947L856.546,216.947L856.546,77.728L958.646,77.728L958.646,102.379L884.975,102.379L884.975,131.942L952.601,131.942L952.601,156.121Z" style="fill:white;fill-rule:nonzero;"/>
                <path d="M1074.25,216.947L1040.72,216.947L1022.97,186.062L1005.12,216.947L972.436,216.947L1007.57,164.811L973.947,114.185L1006.91,114.185L1024.1,144.032L1040.91,114.185L1072.93,114.185L1039.12,164.338L1074.25,216.947Z" style="fill:white;fill-rule:nonzero;"/>
                <path d="M1179.19,150.926L1151.61,150.926C1151.1,147.085 1149.81,143.622 1147.73,140.537C1144.71,136.381 1140.02,134.303 1133.66,134.303C1124.59,134.303 1118.39,138.805 1115.06,147.81C1113.29,152.595 1112.41,158.955 1112.41,166.888C1112.41,174.444 1113.29,180.521 1115.06,185.117C1118.27,193.681 1124.31,197.962 1133.19,197.962C1139.49,197.962 1143.96,196.262 1146.6,192.862C1149.25,189.462 1150.85,185.054 1151.42,179.639L1178.9,179.639C1178.27,187.825 1175.31,195.57 1170.02,202.874C1161.59,214.648 1149.09,220.536 1132.53,220.536C1115.97,220.536 1103.78,215.624 1095.98,205.802C1088.17,195.979 1084.26,183.228 1084.26,167.55C1084.26,149.856 1088.58,136.098 1097.2,126.275C1105.83,116.452 1117.73,111.541 1132.91,111.541C1145.81,111.541 1156.38,114.437 1164.59,120.23C1172.81,126.023 1177.67,136.255 1179.19,150.926Z" style="fill:white;fill-rule:nonzero;"/>
                <rect x="1198.27" y="77.728" width="26.918" height="139.219" style="fill:white;"/>
                <path d="M1317.46,202.401C1317.21,202.716 1316.58,203.661 1315.57,205.235C1314.56,206.809 1313.37,208.194 1311.98,209.391C1307.76,213.169 1303.69,215.75 1299.75,217.136C1295.82,218.521 1291.2,219.214 1285.91,219.214C1270.68,219.214 1260.41,213.735 1255.12,202.779C1252.16,196.734 1250.68,187.825 1250.68,176.05L1250.68,113.997L1278.26,113.997L1278.26,176.05C1278.26,181.906 1278.96,186.314 1280.34,189.273C1282.8,194.499 1287.61,197.112 1294.79,197.112C1303.99,197.112 1310.28,193.397 1313.68,185.967C1315.44,181.937 1316.33,176.617 1316.33,170.005L1316.33,113.997L1343.62,113.997L1343.62,216.947L1317.46,216.947L1317.46,202.401Z" style="fill:white;fill-rule:nonzero;"/>
                <path d="M1440.53,118.719C1448.59,123.882 1453.22,132.761 1454.41,145.354L1427.49,145.354C1427.12,141.891 1426.14,139.152 1424.57,137.137C1421.61,133.485 1416.57,131.659 1409.45,131.659C1403.6,131.659 1399.43,132.572 1396.94,134.398C1394.45,136.224 1393.21,138.365 1393.21,140.82C1393.21,143.906 1394.53,146.141 1397.18,147.526C1399.82,148.974 1409.17,151.462 1425.23,154.988C1435.93,157.506 1443.96,161.316 1449.31,166.416C1454.6,171.579 1457.25,178.033 1457.25,185.778C1457.25,195.979 1453.45,204.306 1445.87,210.76C1438.28,217.214 1426.55,220.441 1410.68,220.441C1394.5,220.441 1382.55,217.025 1374.84,210.194C1367.12,203.362 1363.27,194.657 1363.27,184.078L1390.56,184.078C1391.13,188.864 1392.36,192.264 1394.25,194.279C1397.59,197.868 1403.76,199.662 1412.76,199.662C1418.05,199.662 1422.25,198.875 1425.37,197.301C1428.49,195.727 1430.04,193.366 1430.04,190.217C1430.04,187.195 1428.79,184.897 1426.27,183.323C1423.75,181.748 1414.4,179.041 1398.21,175.2C1386.57,172.304 1378.35,168.683 1373.56,164.338C1368.78,160.057 1366.38,153.886 1366.38,145.826C1366.38,136.318 1370.12,128.148 1377.58,121.316C1385.04,114.485 1395.54,111.069 1409.08,111.069C1421.92,111.069 1432.41,113.619 1440.53,118.719Z" style="fill:white;fill-rule:nonzero;"/>
                <path d="M1504.85,113.997L1504.85,216.947L1477.55,216.947L1477.55,113.997L1504.85,113.997ZM1504.85,76.878L1504.85,101.718L1477.55,101.718L1477.55,76.878L1504.85,76.878Z" style="fill:white;fill-rule:nonzero;"/>
                <path d="M1520.81,113.997L1551.03,113.997L1572.47,189.934L1594.39,113.997L1623.29,113.997L1586.17,216.947L1557.74,216.947L1520.81,113.997Z" style="fill:white;fill-rule:nonzero;"/>
                <path d="M1667.3,216.947L1640.19,216.947L1640.19,77.728L1682.51,77.728L1707.82,187.195L1732.94,77.728L1774.79,77.728L1774.79,216.947L1747.68,216.947L1747.68,122.78C1747.68,120.073 1747.71,116.279 1747.77,111.399C1747.84,106.519 1747.87,102.757 1747.87,100.112L1721.52,216.947L1693.28,216.947L1667.11,100.112C1667.11,102.757 1667.14,106.519 1667.21,111.399C1667.27,116.279 1667.3,120.073 1667.3,122.78L1667.3,216.947Z" style="fill:white;fill-rule:nonzero;"/>
                <path d="M1861.77,216.947L1801.8,216.947L1801.8,77.728L1861.77,77.728C1870.4,77.854 1877.58,78.861 1883.31,80.75C1893.07,83.962 1900.97,89.849 1907.02,98.412C1911.86,105.339 1915.17,112.832 1916.93,120.891C1918.69,128.951 1919.58,136.633 1919.58,143.937C1919.58,162.449 1915.86,178.128 1908.43,190.973C1898.36,208.289 1882.81,216.947 1861.77,216.947ZM1883.4,113.241C1878.93,105.685 1870.09,101.907 1856.86,101.907L1830.04,101.907L1830.04,192.768L1856.86,192.768C1870.59,192.768 1880.16,185.999 1885.58,172.461C1888.53,165.031 1890.01,156.184 1890.01,145.921C1890.01,131.753 1887.81,120.86 1883.4,113.241Z" style="fill:white;fill-rule:nonzero;"/>
            </g>
            <g transform="matrix(1,0,0,1,195.523,38.6064)">
                <path d="M841.097,309.111L841.336,307.913L851.556,305.438L851.556,329.07C855.92,327.207 859.726,326.276 862.972,326.276C865.208,326.276 867.217,326.688 869,327.513C870.783,328.338 872.313,329.469 873.591,330.906C874.868,332.344 875.853,334.047 876.545,336.016C877.237,337.985 877.583,340.088 877.583,342.323C877.583,344.878 877.157,347.207 876.305,349.309C875.454,351.411 874.296,353.208 872.832,354.698C871.369,356.188 869.626,357.346 867.603,358.171C865.58,358.996 863.425,359.408 861.136,359.408C860.072,359.408 858.941,359.262 857.743,358.969C856.546,358.677 855.454,358.357 854.47,358.011C853.485,357.665 852.647,357.346 851.955,357.053C851.263,356.76 850.864,356.614 850.757,356.614C849.906,356.614 848.894,357.679 847.723,359.808L846.526,359.808L846.526,319.011C846.526,317.627 846.566,316.456 846.646,315.498C846.725,314.54 846.632,313.688 846.366,312.943C846.1,312.198 845.581,311.533 844.809,310.947C844.038,310.362 842.8,309.749 841.097,309.111ZM851.556,349.509C851.556,351.904 852.274,353.767 853.711,355.097C855.148,356.428 857.144,357.093 859.699,357.093C867.736,357.093 871.755,352.675 871.755,343.84C871.755,341.711 871.462,339.742 870.876,337.932C870.291,336.122 869.453,334.552 868.361,333.222C867.27,331.891 865.98,330.84 864.489,330.068C862.999,329.296 861.376,328.91 859.619,328.91C857.331,328.91 855.414,329.23 853.871,329.869C852.327,330.507 851.556,331.252 851.556,332.104L851.556,349.509Z" style="fill:white;fill-rule:nonzero;"/>
                <path d="M896.504,366.274C895.546,368.829 894.415,370.732 893.111,371.983C891.807,373.234 890.41,373.859 888.92,373.859C887.908,373.859 887.137,373.54 886.604,372.901C886.072,372.262 885.806,371.57 885.806,370.825C885.806,370.187 886.019,369.628 886.445,369.149C886.87,368.67 887.536,368.43 888.441,368.43C889.079,368.43 889.638,368.483 890.117,368.59C890.596,368.696 891.049,368.803 891.474,368.909C891.9,369.016 892.233,369.069 892.472,369.069C892.712,369.069 892.965,368.936 893.231,368.67C893.391,368.51 893.537,368.39 893.67,368.31C893.803,368.23 893.949,368.071 894.109,367.831C894.269,367.592 894.468,367.233 894.708,366.753C894.947,366.274 895.227,365.556 895.546,364.598C896.238,362.629 896.584,361.325 896.584,360.686C896.584,359.834 896.318,358.77 895.786,357.492L886.045,331.705C885.62,330.481 884.928,329.735 883.97,329.469L881.016,328.591L881.016,327.314C884.369,327.58 887.323,327.713 889.878,327.713C892.432,327.713 894.828,327.58 897.063,327.314L897.063,328.591C896.478,328.698 895.799,328.791 895.027,328.871C894.255,328.95 893.55,329.083 892.912,329.27C892.273,329.456 891.767,329.735 891.395,330.108C891.022,330.481 890.969,331.013 891.235,331.705L899.299,354.459L906.723,333.86C906.99,333.115 907.109,332.304 907.083,331.425C907.056,330.547 906.59,329.975 905.686,329.709L901.215,328.591L901.215,327.314C903.61,327.58 905.805,327.713 907.801,327.713C909.797,327.713 912.126,327.58 914.787,327.314L914.787,328.591L912.232,329.31C911.487,329.523 910.848,329.962 910.316,330.627C909.784,331.292 909.145,332.636 908.4,334.659L896.504,366.274Z" style="fill:white;fill-rule:nonzero;"/>
                <path d="M964.925,354.299C963.541,356.055 961.785,357.346 959.656,358.171C957.527,358.996 955.451,359.408 953.428,359.408C950.927,359.408 948.678,358.969 946.682,358.091C944.686,357.213 942.983,356.029 941.573,354.538C940.162,353.048 939.084,351.318 938.339,349.349C937.594,347.38 937.221,345.33 937.221,343.201C937.221,340.7 937.594,338.411 938.339,336.335C939.084,334.26 940.189,332.477 941.652,330.986C943.116,329.496 944.926,328.338 947.081,327.513C949.237,326.688 951.725,326.276 954.546,326.276C957.473,326.276 959.855,326.715 961.692,327.593C963.528,328.471 964.446,329.602 964.446,330.986C964.446,331.731 964.206,332.383 963.727,332.942C963.248,333.501 962.716,333.807 962.131,333.86C961.386,333.914 960.72,333.634 960.135,333.022C959.549,332.41 958.897,331.731 958.179,330.986C957.46,330.241 956.609,329.563 955.624,328.95C954.639,328.338 953.375,328.032 951.832,328.032C950.182,328.032 948.771,328.458 947.6,329.31C946.429,330.161 945.458,331.252 944.686,332.583C943.914,333.914 943.356,335.417 943.01,337.094C942.664,338.77 942.491,340.487 942.491,342.243C942.491,344.106 942.797,345.903 943.409,347.632C944.021,349.362 944.886,350.879 946.003,352.183C947.121,353.487 948.465,354.512 950.035,355.257C951.605,356.002 953.349,356.375 955.265,356.375C957.394,356.321 959.07,355.949 960.294,355.257C961.519,354.565 962.716,353.58 963.887,352.303L964.925,354.299Z" style="fill:white;fill-rule:nonzero;"/>
                <path d="M968.917,358.45L968.917,357.173L972.909,356.454C973.973,356.188 974.652,355.789 974.945,355.257C975.237,354.725 975.384,353.767 975.384,352.383L975.384,337.054C975.384,335.989 975.158,335.218 974.705,334.739C974.253,334.26 973.255,333.86 971.711,333.541L969.556,333.062L969.715,331.864C971.791,331.119 973.521,330.254 974.905,329.27C976.289,328.285 977.513,326.675 978.577,324.44L980.014,324.44C980.121,325.877 980.201,327.433 980.254,329.11C980.307,330.787 980.334,332.583 980.334,334.499C981.398,332.53 982.862,330.694 984.725,328.99C986.588,327.181 988.211,326.276 989.595,326.276C990.925,326.276 991.95,326.648 992.669,327.394C993.387,328.139 993.746,329.044 993.746,330.108C993.746,331.119 993.454,331.891 992.868,332.423C992.283,332.956 991.564,333.222 990.713,333.222C989.861,333.222 988.943,333.009 987.958,332.583C986.973,332.157 986.135,331.944 985.443,331.944C984.858,331.944 984.259,332.224 983.647,332.783C983.035,333.341 982.489,334.02 982.01,334.818C981.531,335.617 981.132,336.429 980.813,337.254C980.493,338.079 980.334,338.757 980.334,339.289L980.334,352.542C980.334,353.926 980.56,354.844 981.012,355.297C981.465,355.749 982.436,356.082 983.926,356.295L990.074,357.173L990.074,358.45C988.637,358.344 987.04,358.264 985.284,358.211C983.527,358.158 981.638,358.131 979.615,358.131L978.577,358.131C976.714,358.131 974.985,358.158 973.388,358.211C971.791,358.264 970.301,358.344 968.917,358.45Z" style="fill:white;fill-rule:nonzero;"/>
                <path d="M1026.48,338.092L1004.21,338.092C1004.05,339.156 1003.97,340.221 1003.97,341.285C1003.97,343.361 1004.26,345.264 1004.84,346.994C1005.43,348.724 1006.27,350.201 1007.36,351.425C1008.45,352.649 1009.78,353.607 1011.35,354.299C1012.92,354.991 1014.66,355.337 1016.58,355.337C1018.44,355.337 1020.15,354.964 1021.69,354.219C1023.23,353.474 1024.91,352.25 1026.72,350.546L1027.04,352.463C1023.26,357.093 1018.44,359.408 1012.59,359.408C1010.67,359.408 1008.88,358.983 1007.2,358.131C1005.52,357.279 1004.07,356.122 1002.85,354.658C1001.62,353.194 1000.67,351.465 999.974,349.469C999.282,347.473 998.936,345.304 998.936,342.962C998.936,340.62 999.322,338.438 1000.09,336.415C1000.87,334.393 1001.94,332.623 1003.33,331.106C1004.71,329.589 1006.33,328.405 1008.2,327.553C1010.06,326.702 1012.11,326.276 1014.34,326.276C1016.05,326.276 1017.62,326.555 1019.06,327.114C1020.49,327.673 1021.76,328.471 1022.85,329.509C1023.94,330.547 1024.79,331.798 1025.4,333.262C1026.01,334.725 1026.37,336.335 1026.48,338.092ZM1004.6,336.415L1016.74,336.415C1018.44,336.415 1019.71,336.295 1020.53,336.056C1021.36,335.816 1021.56,334.978 1021.13,333.541C1020.71,332.157 1019.97,330.906 1018.94,329.789C1017.9,328.671 1016.34,328.112 1014.26,328.112C1011.71,328.112 1009.59,328.857 1007.92,330.348C1006.24,331.838 1005.14,333.86 1004.6,336.415Z" style="fill:white;fill-rule:nonzero;"/>
                <path d="M1058.73,314.62C1058.73,313.555 1058.67,312.703 1058.54,312.065C1058.4,311.426 1058.11,310.907 1057.66,310.508C1057.2,310.109 1056.57,309.763 1055.74,309.47C1054.91,309.177 1053.84,308.871 1052.51,308.552L1052.51,307.275C1054.21,307.168 1055.83,306.955 1057.38,306.636C1058.92,306.316 1060.38,305.917 1061.77,305.438L1063.76,305.438L1063.76,352.702C1063.76,353.66 1063.82,354.405 1063.92,354.938C1064.03,355.47 1064.27,355.856 1064.64,356.095C1065.02,356.335 1065.56,356.481 1066.28,356.534C1067,356.588 1067.97,356.641 1069.19,356.694L1069.19,357.971C1067.17,358.397 1065.29,358.77 1063.56,359.089C1061.83,359.408 1060.22,359.648 1058.73,359.808L1058.73,356.135C1057.35,356.721 1056.1,357.213 1054.98,357.612C1053.86,358.011 1052.8,358.344 1051.79,358.61C1050.78,358.876 1049.79,359.076 1048.83,359.209C1047.88,359.342 1046.84,359.408 1045.72,359.408C1042.26,359.408 1039.25,357.892 1036.7,354.858C1034.14,351.824 1032.87,348.284 1032.87,344.239C1032.87,341.791 1033.28,339.489 1034.1,337.333C1034.93,335.178 1036.06,333.275 1037.5,331.625C1038.93,329.975 1040.6,328.671 1042.49,327.713C1044.38,326.755 1046.36,326.276 1048.43,326.276C1052.59,326.276 1056.02,326.994 1058.73,328.431L1058.73,314.62ZM1058.73,354.139L1058.73,339.05C1058.73,337.932 1058.67,336.721 1058.54,335.417C1058.4,334.113 1058.03,332.929 1057.42,331.864C1056.81,330.8 1055.85,329.908 1054.54,329.19C1053.24,328.471 1051.42,328.112 1049.07,328.112C1047.58,328.112 1046.2,328.485 1044.92,329.23C1043.64,329.975 1042.53,331.013 1041.57,332.344C1040.61,333.674 1039.87,335.218 1039.33,336.974C1038.8,338.731 1038.54,340.647 1038.54,342.722C1038.54,344.798 1038.83,346.688 1039.41,348.391C1040,350.094 1040.82,351.544 1041.89,352.742C1042.95,353.94 1044.19,354.858 1045.6,355.496C1047.01,356.135 1048.57,356.454 1050.27,356.454C1051.92,356.454 1053.55,356.228 1055.14,355.776C1056.74,355.323 1057.94,354.778 1058.73,354.139Z" style="fill:white;fill-rule:nonzero;"/>
                <path d="M1090.75,358.45C1089.9,358.344 1088.75,358.264 1087.32,358.211C1085.88,358.158 1084.1,358.131 1081.97,358.131C1079.84,358.131 1078.06,358.158 1076.62,358.211C1075.18,358.264 1074.04,358.344 1073.18,358.45L1073.18,357.173L1077.66,356.295C1079.31,355.975 1080.13,355.017 1080.13,353.421L1080.13,337.373C1080.13,336.096 1079.81,335.164 1079.17,334.579C1078.53,333.993 1077.26,333.488 1075.34,333.062L1075.34,331.944C1079.12,330.986 1081.89,329.07 1083.64,326.196L1084.92,326.196L1084.92,353.66C1084.92,354.459 1085.04,355.044 1085.28,355.417C1085.52,355.789 1085.99,356.055 1086.68,356.215L1090.75,357.173L1090.75,358.45ZM1081.97,309.749C1082.87,309.749 1083.7,310.095 1084.44,310.787C1085.19,311.479 1085.56,312.278 1085.56,313.182C1085.56,314.034 1085.17,314.793 1084.4,315.458C1083.63,316.123 1082.77,316.456 1081.81,316.456C1080.9,316.456 1080.13,316.136 1079.49,315.498C1078.85,314.859 1078.53,314.087 1078.53,313.182C1078.53,312.278 1078.88,311.479 1079.57,310.787C1080.26,310.095 1081.06,309.749 1081.97,309.749Z" style="fill:white;fill-rule:nonzero;"/>
                <path d="M1104.96,319.649L1105.92,319.649C1105.92,321.086 1105.93,322.51 1105.96,323.921C1105.99,325.331 1106,326.755 1106,328.192L1116.86,327.952L1116.86,330.827L1106,331.146L1106,347.433C1106,350.626 1106.22,353.035 1106.68,354.658C1107.13,356.281 1108.39,357.04 1110.47,356.933C1112.07,356.827 1114.17,356.082 1116.78,354.698L1117.5,355.816C1116.38,357.093 1115.09,358.011 1113.62,358.57C1112.16,359.129 1110.1,359.408 1107.43,359.408C1106.1,359.408 1105.01,359.262 1104.16,358.969C1103.31,358.677 1102.64,358.144 1102.17,357.373C1101.69,356.601 1101.37,355.576 1101.21,354.299C1101.05,353.021 1100.97,351.371 1100.97,349.349L1100.97,331.306C1100.22,331.306 1099.5,331.319 1098.81,331.346C1098.12,331.372 1097.4,331.385 1096.66,331.385C1095.91,331.385 1095.54,331.186 1095.54,330.787C1095.54,330.387 1095.88,330.028 1096.58,329.709C1098.92,328.698 1100.57,327.606 1101.53,326.436C1102.06,325.797 1102.62,324.919 1103.2,323.801C1103.79,322.683 1104.38,321.299 1104.96,319.649Z" style="fill:white;fill-rule:nonzero;"/>
                <path d="M1149.03,338.092L1126.76,338.092C1126.6,339.156 1126.52,340.221 1126.52,341.285C1126.52,343.361 1126.81,345.264 1127.39,346.994C1127.98,348.724 1128.82,350.201 1129.91,351.425C1131,352.649 1132.33,353.607 1133.9,354.299C1135.47,354.991 1137.21,355.337 1139.13,355.337C1140.99,355.337 1142.7,354.964 1144.24,354.219C1145.78,353.474 1147.46,352.25 1149.27,350.546L1149.59,352.463C1145.81,357.093 1140.99,359.408 1135.14,359.408C1133.22,359.408 1131.43,358.983 1129.75,358.131C1128.07,357.279 1126.62,356.122 1125.4,354.658C1124.17,353.194 1123.22,351.465 1122.52,349.469C1121.83,347.473 1121.49,345.304 1121.49,342.962C1121.49,340.62 1121.87,338.438 1122.64,336.415C1123.42,334.393 1124.49,332.623 1125.88,331.106C1127.26,329.589 1128.88,328.405 1130.75,327.553C1132.61,326.702 1134.66,326.276 1136.89,326.276C1138.6,326.276 1140.17,326.555 1141.61,327.114C1143.04,327.673 1144.31,328.471 1145.4,329.509C1146.49,330.547 1147.34,331.798 1147.95,333.262C1148.57,334.725 1148.92,336.335 1149.03,338.092ZM1127.15,336.415L1139.29,336.415C1140.99,336.415 1142.26,336.295 1143.08,336.056C1143.91,335.816 1144.11,334.978 1143.68,333.541C1143.26,332.157 1142.52,330.906 1141.49,329.789C1140.45,328.671 1138.89,328.112 1136.82,328.112C1134.26,328.112 1132.14,328.857 1130.47,330.348C1128.79,331.838 1127.69,333.86 1127.15,336.415Z" style="fill:white;fill-rule:nonzero;"/>
                <path d="M1197.97,357.093L1200.29,356.614C1201.56,356.348 1202.47,356.015 1203,355.616C1203.53,355.217 1203.8,354.432 1203.8,353.261L1203.8,338.97C1203.8,335.83 1203.19,333.541 1201.96,332.104C1200.74,330.667 1198.77,329.948 1196.06,329.948C1192.54,329.948 1189.48,331.492 1186.87,334.579L1186.87,352.622C1186.87,353.74 1186.98,354.578 1187.19,355.137C1187.41,355.696 1187.99,356.082 1188.95,356.295L1193.02,357.173L1193.02,358.45C1190.31,358.237 1187.43,358.131 1184.4,358.131C1181.37,358.131 1178.38,358.237 1175.46,358.45L1175.46,357.173L1177.77,356.614C1179.26,356.242 1180.34,355.829 1181.01,355.377C1181.67,354.924 1182,354.139 1182,353.021L1182,338.81C1182,336.096 1181.37,333.954 1180.09,332.383C1178.81,330.813 1177.05,330.028 1174.82,330.028C1173.91,330.028 1172.89,330.215 1171.74,330.587C1170.6,330.96 1169.52,331.452 1168.51,332.064C1167.5,332.676 1166.65,333.355 1165.96,334.1C1165.26,334.845 1164.92,335.617 1164.92,336.415L1164.92,352.702C1164.92,353.979 1165.09,354.858 1165.44,355.337C1165.78,355.816 1166.33,356.135 1167.07,356.295L1171.14,357.173L1171.14,358.45C1165.82,358.078 1160.37,358.078 1154.78,358.45L1154.78,357.173L1157.09,356.694C1158.27,356.428 1159.05,356.055 1159.45,355.576C1159.85,355.097 1160.05,354.299 1160.05,353.181L1160.05,335.936C1160.05,335.297 1160,334.752 1159.89,334.3C1159.78,333.847 1159.58,333.475 1159.29,333.182C1159,332.889 1158.57,332.663 1158.01,332.503C1157.45,332.344 1156.69,332.184 1155.74,332.024L1155.74,330.747C1158.5,330.002 1161.06,328.032 1163.4,324.839L1164.92,324.839L1164.92,332.503C1167.26,330.374 1169.35,328.804 1171.18,327.793C1173.02,326.781 1175.06,326.276 1177.29,326.276C1178.41,326.276 1179.41,326.356 1180.29,326.515C1181.16,326.675 1181.96,326.968 1182.68,327.394C1183.4,327.819 1184.08,328.418 1184.72,329.19C1185.36,329.962 1186,330.933 1186.63,332.104C1188.44,330.241 1190.29,328.804 1192.18,327.793C1194.07,326.781 1196.4,326.276 1199.17,326.276C1202.04,326.276 1204.35,327.221 1206.07,329.11C1207.8,331 1208.67,333.701 1208.67,337.214L1208.67,353.341C1208.67,355.31 1209.1,356.375 1209.95,356.534L1213.54,357.173L1213.54,358.45C1210.83,358.237 1208.08,358.131 1205.32,358.131C1202.55,358.131 1200.1,358.211 1197.97,358.371L1197.97,357.093Z" style="fill:white;fill-rule:nonzero;"/>
                <path d="M1246.27,338.092L1224,338.092C1223.84,339.156 1223.76,340.221 1223.76,341.285C1223.76,343.361 1224.05,345.264 1224.64,346.994C1225.22,348.724 1226.06,350.201 1227.15,351.425C1228.24,352.649 1229.57,353.607 1231.14,354.299C1232.71,354.991 1234.46,355.337 1236.37,355.337C1238.24,355.337 1239.94,354.964 1241.48,354.219C1243.03,353.474 1244.7,352.25 1246.51,350.546L1246.83,352.463C1243.05,357.093 1238.24,359.408 1232.38,359.408C1230.46,359.408 1228.67,358.983 1226.99,358.131C1225.32,357.279 1223.87,356.122 1222.64,354.658C1221.42,353.194 1220.46,351.465 1219.77,349.469C1219.08,347.473 1218.73,345.304 1218.73,342.962C1218.73,340.62 1219.11,338.438 1219.89,336.415C1220.66,334.393 1221.74,332.623 1223.12,331.106C1224.5,329.589 1226.13,328.405 1227.99,327.553C1229.85,326.702 1231.9,326.276 1234.14,326.276C1235.84,326.276 1237.41,326.555 1238.85,327.114C1240.29,327.673 1241.55,328.471 1242.64,329.509C1243.73,330.547 1244.58,331.798 1245.19,333.262C1245.81,334.725 1246.17,336.335 1246.27,338.092ZM1224.4,336.415L1236.53,336.415C1238.24,336.415 1239.5,336.295 1240.33,336.056C1241.15,335.816 1241.35,334.978 1240.92,333.541C1240.5,332.157 1239.77,330.906 1238.73,329.789C1237.69,328.671 1236.13,328.112 1234.06,328.112C1231.5,328.112 1229.39,328.857 1227.71,330.348C1226.03,331.838 1224.93,333.86 1224.4,336.415Z" style="fill:white;fill-rule:nonzero;"/>
                <path d="M1278.53,314.62C1278.53,313.555 1278.46,312.703 1278.33,312.065C1278.19,311.426 1277.9,310.907 1277.45,310.508C1277,310.109 1276.36,309.763 1275.53,309.47C1274.71,309.177 1273.63,308.871 1272.3,308.552L1272.3,307.275C1274,307.168 1275.63,306.955 1277.17,306.636C1278.71,306.316 1280.18,305.917 1281.56,305.438L1283.56,305.438L1283.56,352.702C1283.56,353.66 1283.61,354.405 1283.72,354.938C1283.82,355.47 1284.06,355.856 1284.43,356.095C1284.81,356.335 1285.35,356.481 1286.07,356.534C1286.79,356.588 1287.76,356.641 1288.99,356.694L1288.99,357.971C1286.96,358.397 1285.09,358.77 1283.36,359.089C1281.63,359.408 1280.02,359.648 1278.53,359.808L1278.53,356.135C1277.14,356.721 1275.89,357.213 1274.78,357.612C1273.66,358.011 1272.59,358.344 1271.58,358.61C1270.57,358.876 1269.59,359.076 1268.63,359.209C1267.67,359.342 1266.63,359.408 1265.51,359.408C1262.05,359.408 1259.05,357.892 1256.49,354.858C1253.94,351.824 1252.66,348.284 1252.66,344.239C1252.66,341.791 1253.07,339.489 1253.9,337.333C1254.72,335.178 1255.85,333.275 1257.29,331.625C1258.73,329.975 1260.39,328.671 1262.28,327.713C1264.17,326.755 1266.15,326.276 1268.23,326.276C1272.38,326.276 1275.81,326.994 1278.53,328.431L1278.53,314.62ZM1278.53,354.139L1278.53,339.05C1278.53,337.932 1278.46,336.721 1278.33,335.417C1278.19,334.113 1277.82,332.929 1277.21,331.864C1276.6,330.8 1275.64,329.908 1274.34,329.19C1273.03,328.471 1271.21,328.112 1268.87,328.112C1267.38,328.112 1265.99,328.485 1264.71,329.23C1263.44,329.975 1262.32,331.013 1261.36,332.344C1260.4,333.674 1259.66,335.218 1259.13,336.974C1258.59,338.731 1258.33,340.647 1258.33,342.722C1258.33,344.798 1258.62,346.688 1259.21,348.391C1259.79,350.094 1260.62,351.544 1261.68,352.742C1262.75,353.94 1263.98,354.858 1265.39,355.496C1266.8,356.135 1268.36,356.454 1270.06,356.454C1271.71,356.454 1273.34,356.228 1274.93,355.776C1276.53,355.323 1277.73,354.778 1278.53,354.139Z" style="fill:white;fill-rule:nonzero;"/>
                <path d="M1310.54,358.45C1309.69,358.344 1308.55,358.264 1307.11,358.211C1305.67,358.158 1303.89,358.131 1301.76,358.131C1299.63,358.131 1297.85,358.158 1296.41,358.211C1294.97,358.264 1293.83,358.344 1292.98,358.45L1292.98,357.173L1297.45,356.295C1299.1,355.975 1299.92,355.017 1299.92,353.421L1299.92,337.373C1299.92,336.096 1299.6,335.164 1298.96,334.579C1298.33,333.993 1297.05,333.488 1295.13,333.062L1295.13,331.944C1298.91,330.986 1301.68,329.07 1303.44,326.196L1304.71,326.196L1304.71,353.66C1304.71,354.459 1304.83,355.044 1305.07,355.417C1305.31,355.789 1305.78,356.055 1306.47,356.215L1310.54,357.173L1310.54,358.45ZM1301.76,309.749C1302.66,309.749 1303.49,310.095 1304.24,310.787C1304.98,311.479 1305.35,312.278 1305.35,313.182C1305.35,314.034 1304.97,314.793 1304.19,315.458C1303.42,316.123 1302.56,316.456 1301.6,316.456C1300.69,316.456 1299.92,316.136 1299.29,315.498C1298.65,314.859 1298.33,314.087 1298.33,313.182C1298.33,312.278 1298.67,311.479 1299.37,310.787C1300.06,310.095 1300.86,309.749 1301.76,309.749Z" style="fill:white;fill-rule:nonzero;"/>
                <path d="M1343.43,354.299C1342.05,356.055 1340.3,357.346 1338.17,358.171C1336.04,358.996 1333.96,359.408 1331.94,359.408C1329.44,359.408 1327.19,358.969 1325.19,358.091C1323.2,357.213 1321.49,356.029 1320.08,354.538C1318.67,353.048 1317.59,351.318 1316.85,349.349C1316.1,347.38 1315.73,345.33 1315.73,343.201C1315.73,340.7 1316.1,338.411 1316.85,336.335C1317.59,334.26 1318.7,332.477 1320.16,330.986C1321.63,329.496 1323.44,328.338 1325.59,327.513C1327.75,326.688 1330.24,326.276 1333.06,326.276C1335.98,326.276 1338.37,326.715 1340.2,327.593C1342.04,328.471 1342.96,329.602 1342.96,330.986C1342.96,331.731 1342.72,332.383 1342.24,332.942C1341.76,333.501 1341.23,333.807 1340.64,333.86C1339.89,333.914 1339.23,333.634 1338.64,333.022C1338.06,332.41 1337.41,331.731 1336.69,330.986C1335.97,330.241 1335.12,329.563 1334.13,328.95C1333.15,328.338 1331.88,328.032 1330.34,328.032C1328.69,328.032 1327.28,328.458 1326.11,329.31C1324.94,330.161 1323.97,331.252 1323.2,332.583C1322.42,333.914 1321.87,335.417 1321.52,337.094C1321.17,338.77 1321,340.487 1321,342.243C1321,344.106 1321.31,345.903 1321.92,347.632C1322.53,349.362 1323.4,350.879 1324.51,352.183C1325.63,353.487 1326.98,354.512 1328.55,355.257C1330.12,356.002 1331.86,356.375 1333.77,356.375C1335.9,356.321 1337.58,355.949 1338.8,355.257C1340.03,354.565 1341.23,353.58 1342.4,352.303L1343.43,354.299Z" style="fill:white;fill-rule:nonzero;"/>
                <path d="M1361.72,359.009C1359.54,359.009 1357.62,358.623 1355.97,357.852C1354.32,357.08 1352.95,356.029 1351.86,354.698C1350.77,353.367 1349.95,351.797 1349.42,349.988C1348.89,348.178 1348.62,346.235 1348.62,344.159C1348.62,341.339 1349.1,338.85 1350.06,336.695C1351.02,334.539 1352.27,332.743 1353.81,331.306C1355.36,329.869 1357.11,328.777 1359.08,328.032C1361.05,327.287 1363.05,326.915 1365.07,326.915C1366.03,326.915 1366.96,327.021 1367.87,327.234C1368.77,327.447 1369.57,327.686 1370.26,327.952C1371.06,328.219 1371.8,328.538 1372.5,328.91L1376.89,326.675L1377.61,326.915C1377.61,331.066 1377.62,335.218 1377.64,339.369C1377.67,343.521 1377.68,347.672 1377.68,351.824C1377.68,353.953 1378.59,354.964 1380.4,354.858C1380.83,354.858 1381.18,354.791 1381.48,354.658C1381.77,354.525 1382.05,354.379 1382.32,354.219C1382.58,354.006 1382.82,353.793 1383.03,353.58L1383.83,353.979C1383.46,354.938 1382.98,355.789 1382.4,356.534C1381.92,357.173 1381.3,357.745 1380.56,358.251C1379.81,358.756 1378.91,359.009 1377.85,359.009C1376.14,359.009 1374.92,358.45 1374.17,357.333C1373.43,356.215 1373.06,354.645 1373.06,352.622L1373.06,350.307C1372.68,351.425 1372.19,352.502 1371.58,353.54C1370.96,354.578 1370.21,355.51 1369.3,356.335C1368.4,357.16 1367.32,357.812 1366.07,358.291C1364.82,358.77 1363.37,359.009 1361.72,359.009ZM1373.13,341.445C1373.13,337.613 1372.46,334.619 1371.1,332.463C1369.74,330.308 1367.36,329.23 1363.95,329.23C1362.78,329.23 1361.56,329.469 1360.28,329.948C1359,330.427 1357.83,331.186 1356.77,332.224C1355.7,333.262 1354.83,334.606 1354.13,336.256C1353.44,337.906 1353.1,339.875 1353.1,342.164C1353.1,343.973 1353.34,345.69 1353.81,347.313C1354.29,348.936 1354.97,350.373 1355.85,351.624C1356.73,352.875 1357.82,353.86 1359.12,354.578C1360.43,355.297 1361.9,355.656 1363.55,355.656C1364.88,355.656 1366.13,355.323 1367.31,354.658C1368.48,353.993 1369.49,353.061 1370.34,351.864C1371.19,350.666 1371.87,349.256 1372.38,347.632C1372.88,346.009 1373.13,344.239 1373.13,342.323L1373.13,341.445Z" style="fill:white;fill-rule:nonzero;"/>
                <path d="M1405.55,358.371C1404.27,358.317 1402.86,358.264 1401.32,358.211C1399.77,358.158 1398.23,358.131 1396.69,358.131C1395.14,358.131 1393.6,358.158 1392.06,358.211C1390.51,358.264 1389.1,358.317 1387.83,358.371L1387.83,357.093L1392.77,356.135C1393.47,355.975 1393.94,355.763 1394.21,355.496C1394.48,355.23 1394.61,354.698 1394.61,353.9L1394.61,313.342C1394.61,312.224 1394.29,311.399 1393.65,310.867C1393.01,310.335 1391.6,309.749 1389.42,309.111L1389.42,308.073C1391.55,307.647 1394.29,306.769 1397.64,305.438L1399.48,305.438L1399.48,353.74C1399.48,354.751 1399.59,355.403 1399.8,355.696C1400.01,355.989 1400.52,356.215 1401.32,356.375L1405.55,357.093L1405.55,358.371Z" style="fill:white;fill-rule:nonzero;"/>
                <path d="M1438.28,338.092L1416.01,338.092C1415.85,339.156 1415.77,340.221 1415.77,341.285C1415.77,343.361 1416.06,345.264 1416.65,346.994C1417.23,348.724 1418.07,350.201 1419.16,351.425C1420.25,352.649 1421.58,353.607 1423.15,354.299C1424.72,354.991 1426.47,355.337 1428.38,355.337C1430.25,355.337 1431.95,354.964 1433.49,354.219C1435.04,353.474 1436.71,352.25 1438.52,350.546L1438.84,352.463C1435.06,357.093 1430.25,359.408 1424.39,359.408C1422.47,359.408 1420.68,358.983 1419,358.131C1417.32,357.279 1415.87,356.122 1414.65,354.658C1413.43,353.194 1412.47,351.465 1411.78,349.469C1411.08,347.473 1410.74,345.304 1410.74,342.962C1410.74,340.62 1411.12,338.438 1411.9,336.415C1412.67,334.393 1413.75,332.623 1415.13,331.106C1416.51,329.589 1418.14,328.405 1420,327.553C1421.86,326.702 1423.91,326.276 1426.15,326.276C1427.85,326.276 1429.42,326.555 1430.86,327.114C1432.29,327.673 1433.56,328.471 1434.65,329.509C1435.74,330.547 1436.59,331.798 1437.2,333.262C1437.82,334.725 1438.17,336.335 1438.28,338.092ZM1416.41,336.415L1428.54,336.415C1430.25,336.415 1431.51,336.295 1432.33,336.056C1433.16,335.816 1433.36,334.978 1432.93,333.541C1432.51,332.157 1431.78,330.906 1430.74,329.789C1429.7,328.671 1428.14,328.112 1426.07,328.112C1423.51,328.112 1421.4,328.857 1419.72,330.348C1418.04,331.838 1416.94,333.86 1416.41,336.415Z" style="fill:white;fill-rule:nonzero;"/>
                <path d="M1450.82,359.249C1449.64,359.249 1448.66,358.85 1447.86,358.051C1447.06,357.253 1446.66,356.268 1446.66,355.097C1446.66,353.926 1447.06,352.942 1447.86,352.143C1448.66,351.345 1449.64,350.946 1450.82,350.946C1451.99,350.946 1452.97,351.345 1453.77,352.143C1454.57,352.942 1454.97,353.926 1454.97,355.097C1454.97,356.268 1454.57,357.253 1453.77,358.051C1452.97,358.85 1451.99,359.249 1450.82,359.249Z" style="fill:white;fill-rule:nonzero;"/>
                <path d="M1461.52,358.45L1461.52,357.173L1465.51,356.454C1466.57,356.188 1467.25,355.789 1467.54,355.257C1467.84,354.725 1467.98,353.767 1467.98,352.383L1467.98,337.054C1467.98,335.989 1467.76,335.218 1467.3,334.739C1466.85,334.26 1465.85,333.86 1464.31,333.541L1462.15,333.062L1462.31,331.864C1464.39,331.119 1466.12,330.254 1467.5,329.27C1468.89,328.285 1470.11,326.675 1471.17,324.44L1472.61,324.44C1472.72,325.877 1472.8,327.433 1472.85,329.11C1472.9,330.787 1472.93,332.583 1472.93,334.499C1474,332.53 1475.46,330.694 1477.32,328.99C1479.18,327.181 1480.81,326.276 1482.19,326.276C1483.52,326.276 1484.55,326.648 1485.27,327.394C1485.99,328.139 1486.34,329.044 1486.34,330.108C1486.34,331.119 1486.05,331.891 1485.47,332.423C1484.88,332.956 1484.16,333.222 1483.31,333.222C1482.46,333.222 1481.54,333.009 1480.56,332.583C1479.57,332.157 1478.73,331.944 1478.04,331.944C1477.45,331.944 1476.86,332.224 1476.25,332.783C1475.63,333.341 1475.09,334.02 1474.61,334.818C1474.13,335.617 1473.73,336.429 1473.41,337.254C1473.09,338.079 1472.93,338.757 1472.93,339.289L1472.93,352.542C1472.93,353.926 1473.16,354.844 1473.61,355.297C1474.06,355.749 1475.03,356.082 1476.52,356.295L1482.67,357.173L1482.67,358.45C1481.23,358.344 1479.64,358.264 1477.88,358.211C1476.12,358.158 1474.24,358.131 1472.21,358.131L1471.17,358.131C1469.31,358.131 1467.58,358.158 1465.99,358.211C1464.39,358.264 1462.9,358.344 1461.52,358.45Z" style="fill:white;fill-rule:nonzero;"/>
                <path d="M1508.22,359.408C1505.88,359.408 1503.69,358.996 1501.67,358.171C1499.65,357.346 1497.89,356.202 1496.4,354.738C1494.91,353.274 1493.73,351.531 1492.85,349.509C1491.97,347.486 1491.53,345.277 1491.53,342.882C1491.53,340.434 1491.97,338.198 1492.85,336.176C1493.73,334.153 1494.94,332.41 1496.48,330.946C1498.03,329.483 1499.85,328.338 1501.95,327.513C1504.06,326.688 1506.36,326.276 1508.86,326.276C1511.41,326.276 1513.73,326.715 1515.8,327.593C1517.88,328.471 1519.68,329.669 1521.19,331.186C1522.71,332.703 1523.88,334.486 1524.71,336.535C1525.53,338.584 1525.94,340.753 1525.94,343.042C1525.94,345.33 1525.5,347.473 1524.63,349.469C1523.75,351.465 1522.52,353.194 1520.95,354.658C1519.38,356.122 1517.51,357.279 1515.33,358.131C1513.14,358.983 1510.77,359.408 1508.22,359.408ZM1497.28,343.521C1497.28,347.992 1498.32,351.505 1500.39,354.059C1502.47,356.614 1505.19,357.892 1508.54,357.892C1510.19,357.892 1511.73,357.532 1513.17,356.814C1514.61,356.095 1515.84,355.084 1516.88,353.78C1517.92,352.476 1518.73,350.906 1519.32,349.069C1519.9,347.233 1520.19,345.197 1520.19,342.962C1520.19,340.726 1519.93,338.677 1519.4,336.814C1518.87,334.952 1518.09,333.355 1517.08,332.024C1516.07,330.694 1514.85,329.656 1513.41,328.91C1511.97,328.165 1510.38,327.793 1508.62,327.793C1505.11,327.793 1502.34,329.123 1500.32,331.785C1498.29,334.446 1497.28,338.358 1497.28,343.521Z" style="fill:white;fill-rule:nonzero;"/>
            </g>
        </g>
    </g>
</svg>
